<svg xmlns="http://www.w3.org/2000/svg" width="192" height="192" viewBox="0 0 192 192"><g transform="translate(-3049 -139)"><g transform="translate(3049 139)"><g transform="translate(0 0)"><path d="M211.134,48.528,119.5.528a4.7,4.7,0,0,0-4.329,0l-91.636,48A3.954,3.954,0,0,0,21.334,52v88a3.954,3.954,0,0,0,2.2,3.472l91.636,48a4.7,4.7,0,0,0,4.329,0l91.636-48a3.954,3.954,0,0,0,2.2-3.472V52A3.955,3.955,0,0,0,211.134,48.528Zm-6.528,89.152-87.272,45.712L30.061,137.68V54.32L117.334,8.608,204.606,54.32Z" transform="translate(-21.334 0)" fill="#dc9168"/></g></g><g transform="translate(3098.154 191.739)"><g transform="translate(0 0)"><path d="M120.727,44.413H103.382a2.65,2.65,0,0,0-2.47,2.8V66.239H88.506V34a2.65,2.65,0,0,0-2.47-2.8H68.691a2.65,2.65,0,0,0-2.47,2.8V86.954H53.815V63.166a2.65,2.65,0,0,0-2.47-2.8H34a2.649,2.649,0,0,0-2.47,2.8v53.575a2.65,2.65,0,0,0,2.47,2.8h86.727a2.65,2.65,0,0,0,2.47-2.8V47.211A2.65,2.65,0,0,0,120.727,44.413ZM48.876,113.942H36.47V65.964H48.876Zm17.346,0H53.815V92.551H66.221ZM83.567,69.037v44.905H71.161V36.8H83.567Zm17.346,44.905H88.507V71.836h12.406Zm17.345,0H105.852V50.01h12.406v63.932Z" transform="translate(-31.53 -31.201)" fill="#dc9168"/></g></g></g></svg>